<?xml version="1.0" encoding="UTF-8"?>
<svg xmlns="http://www.w3.org/2000/svg" width="6248" height="1069" viewBox="0 0 6248 1069">
<g transform="translate(15 822) scale(1 -1)">
<path d="M65 0V255V525H184V344H204Q211 412 230.5 454.5Q250 497 284.5 517.0Q319 537 371 537Q380 537 391.0 536.0Q402 535 416 532L410 379Q394 386 376.0 389.0Q358 392 344 392Q306 392 277.5 374.5Q249 357 232.5 323.0Q216 289 209 240V0Z" fill="#FFFFFF"/>
<path d="M732 -14Q653 -14 593.0 17.5Q533 49 499.0 110.5Q465 172 465 264Q465 356 499.5 417.0Q534 478 594.5 508.5Q655 539 732 539Q810 539 870.5 508.0Q931 477 965.5 415.5Q1000 354 1000 262Q1000 169 965.0 107.5Q930 46 869.0 16.0Q808 -14 732 -14ZM737 93Q776 93 802.0 111.0Q828 129 842.0 165.5Q856 202 856 254Q856 309 841.5 347.5Q827 386 799.0 406.5Q771 427 728 427Q691 427 664.0 409.0Q637 391 623.5 355.0Q610 319 610 266Q610 181 643.5 137.0Q677 93 737 93Z" fill="#FFFFFF"/>
<path d="M1461 -167V-20Q1461 4 1464.5 30.5Q1468 57 1473.5 86.0Q1479 115 1484 142H1465Q1451 94 1428.0 58.5Q1405 23 1370.5 4.5Q1336 -14 1285 -14Q1216 -14 1169.0 21.5Q1122 57 1098.0 119.0Q1074 181 1074 260Q1074 345 1100.0 408.0Q1126 471 1176.0 505.0Q1226 539 1294 539Q1343 539 1378.5 521.0Q1414 503 1437.0 467.5Q1460 432 1469 378H1487L1486 524H1606V266V-167ZM1337 102Q1361 102 1380.5 111.0Q1400 120 1415.0 135.5Q1430 151 1440.5 170.0Q1451 189 1456.5 210.0Q1462 231 1462 250V269Q1462 294 1454.5 320.5Q1447 347 1432.5 369.5Q1418 392 1395.0 406.0Q1372 420 1340 420Q1305 420 1278.5 400.5Q1252 381 1238.0 345.0Q1224 309 1224 259Q1224 213 1237.5 177.5Q1251 142 1276.5 122.0Q1302 102 1337 102Z" fill="#FFFFFF"/>
<path d="M1671 -154V-24H2225V-154Z" fill="#FFFFFF"/>
<path d="M2533 -14Q2465 -14 2414.0 6.0Q2363 26 2329.0 62.0Q2295 98 2278.0 147.5Q2261 197 2261 256Q2261 318 2278.5 369.5Q2296 421 2330.0 459.0Q2364 497 2413.5 518.0Q2463 539 2528 539Q2593 539 2640.5 517.5Q2688 496 2717.5 458.0Q2747 420 2757 369L2624 327Q2621 359 2607.5 381.5Q2594 404 2571.5 415.5Q2549 427 2521 427Q2493 427 2471.5 415.5Q2450 404 2436.0 382.5Q2422 361 2414.0 331.0Q2406 301 2406 262Q2406 208 2420.5 170.5Q2435 133 2463.5 113.5Q2492 94 2534 94Q2574 94 2597.5 109.5Q2621 125 2632.5 149.5Q2644 174 2647 201L2773 174Q2769 135 2752.5 100.5Q2736 66 2706.5 40.5Q2677 15 2634.0 0.5Q2591 -14 2533 -14Z" fill="#FFFFFF"/>
<path d="M2854 0V255V525H2973V344H2993Q3000 412 3019.5 454.5Q3039 497 3073.5 517.0Q3108 537 3160 537Q3169 537 3180.0 536.0Q3191 535 3205 532L3199 379Q3183 386 3165.0 389.0Q3147 392 3133 392Q3095 392 3066.5 374.5Q3038 357 3021.5 323.0Q3005 289 2998 240V0Z" fill="#FFFFFF"/>
<path d="M3527 -14Q3462 -14 3411.5 4.0Q3361 22 3326.0 56.5Q3291 91 3272.5 140.5Q3254 190 3254 253Q3254 315 3271.5 367.5Q3289 420 3323.0 458.5Q3357 497 3406.0 518.0Q3455 539 3517 539Q3577 539 3624.0 519.0Q3671 499 3702.0 460.0Q3733 421 3748.0 365.0Q3763 309 3758 236L3347 233V311L3674 315L3625 274Q3631 327 3617.5 361.0Q3604 395 3577.5 411.0Q3551 427 3518 427Q3480 427 3451.5 407.0Q3423 387 3407.5 348.5Q3392 310 3392 256Q3392 171 3428.5 131.0Q3465 91 3527 91Q3555 91 3574.0 98.5Q3593 106 3606.0 118.5Q3619 131 3626.0 146.0Q3633 161 3638 176L3763 150Q3755 113 3737.5 83.0Q3720 53 3691.5 31.5Q3663 10 3622.5 -2.0Q3582 -14 3527 -14Z" fill="#FFFFFF"/>
<path d="M3986 -14Q3943 -14 3909.0 3.0Q3875 20 3855.5 53.5Q3836 87 3836 135Q3836 179 3852.5 208.0Q3869 237 3901.0 255.0Q3933 273 3979.5 285.0Q4026 297 4086 306Q4118 311 4139.0 315.5Q4160 320 4170.0 330.5Q4180 341 4180 361Q4180 389 4160.0 409.0Q4140 429 4096 429Q4068 429 4043.5 419.0Q4019 409 4001.5 389.0Q3984 369 3977 337L3849 375Q3861 416 3883.0 447.0Q3905 478 3937.5 498.5Q3970 519 4011.0 529.0Q4052 539 4100 539Q4176 539 4225.0 514.0Q4274 489 4297.5 437.5Q4321 386 4321 306V216Q4321 181 4322.5 144.5Q4324 108 4326.5 72.0Q4329 36 4333 0H4205Q4202 26 4198.5 58.5Q4195 91 4193 125H4176Q4162 87 4136.0 55.0Q4110 23 4072.5 4.5Q4035 -14 3986 -14ZM4047 90Q4066 90 4086.0 97.0Q4106 104 4124.5 117.0Q4143 130 4158.0 149.0Q4173 168 4183 193L4181 274L4204 270Q4186 257 4162.5 249.5Q4139 242 4113.5 238.0Q4088 234 4063.0 229.0Q4038 224 4018.0 216.0Q3998 208 3986.5 194.5Q3975 181 3975 157Q3975 126 3995.0 108.0Q4015 90 4047 90Z" fill="#FFFFFF"/>
<path d="M4641 -12Q4553 -12 4511.5 34.5Q4470 81 4470 183V412H4395L4397 524H4447Q4479 524 4494.5 534.0Q4510 544 4514 570L4526 642H4608V525H4740V408H4608V189Q4608 153 4625.0 136.5Q4642 120 4676 120Q4695 120 4713.0 124.5Q4731 129 4744 138V4Q4713 -6 4687.0 -9.0Q4661 -12 4641 -12Z" fill="#FFFFFF"/>
<path d="M4841 0V525H4985V0ZM4913 602Q4871 602 4848.5 620.0Q4826 638 4826 672Q4826 706 4848.5 724.0Q4871 742 4913 742Q4956 742 4978.5 724.0Q5001 706 5001 672Q5001 638 4978.5 620.0Q4956 602 4913 602Z" fill="#FFFFFF"/>
<path d="M5236 0 5060 524H5219L5330 114H5345L5457 524H5609L5433 0Z" fill="#FFFFFF"/>
<path d="M5917 -14Q5852 -14 5801.5 4.0Q5751 22 5716.0 56.5Q5681 91 5662.5 140.5Q5644 190 5644 253Q5644 315 5661.5 367.5Q5679 420 5713.0 458.5Q5747 497 5796.0 518.0Q5845 539 5907 539Q5967 539 6014.0 519.0Q6061 499 6092.0 460.0Q6123 421 6138.0 365.0Q6153 309 6148 236L5737 233V311L6064 315L6015 274Q6021 327 6007.5 361.0Q5994 395 5967.5 411.0Q5941 427 5908 427Q5870 427 5841.5 407.0Q5813 387 5797.5 348.5Q5782 310 5782 256Q5782 171 5818.5 131.0Q5855 91 5917 91Q5945 91 5964.0 98.5Q5983 106 5996.0 118.5Q6009 131 6016.0 146.0Q6023 161 6028 176L6153 150Q6145 113 6127.5 83.0Q6110 53 6081.5 31.5Q6053 10 6012.5 -2.0Q5972 -14 5917 -14Z" fill="#FFFFFF"/>
</g>
</svg>